inDegrees=no
num_controls=7
num_derivatives=13
num_iterations=91
num_multipliers=7
num_parameters=0
num_slacks=7
num_states=26
objective=4.624262
objective_accelerations=0.628155
objective_balance=0.056488
objective_effort=0.476530
objective_height=3.421021
objective_ligament=0.042068
solver_duration=989.983303
status=Solve_Succeeded
success=true
DataType=double
version=3
OpenSimVersion=4.4-2022-07-23-0e9fedc
endheader
time	/jointset/ground_pelvis/pelvis_tilt/value	/jointset/ground_pelvis/pelvis_tx/value	/jointset/ground_pelvis/pelvis_ty/value	/jointset/hip_l/hip_flexion_l/value	/jointset/hip_l/hip_adduction_l/value	/jointset/hip_l/hip_rotation_l/value	/jointset/back/lumbar_extension/value	/jointset/patellofemoral_l/patellar_flexion_l/value	/jointset/knee_l/knee_flexion_l/value	/jointset/knee_l/knee_adduction_l/value	/jointset/knee_l/knee_rotation_l/value	/jointset/ankle_l/ankle_angle_l/value	/jointset/subtalar_l/subtalar_angle_l/value	/jointset/ground_pelvis/pelvis_tilt/speed	/jointset/ground_pelvis/pelvis_tx/speed	/jointset/ground_pelvis/pelvis_ty/speed	/jointset/hip_l/hip_flexion_l/speed	/jointset/hip_l/hip_adduction_l/speed	/jointset/hip_l/hip_rotation_l/speed	/jointset/back/lumbar_extension/speed	/jointset/patellofemoral_l/patellar_flexion_l/speed	/jointset/knee_l/knee_flexion_l/speed	/jointset/knee_l/knee_adduction_l/speed	/jointset/knee_l/knee_rotation_l/speed	/jointset/ankle_l/ankle_angle_l/speed	/jointset/subtalar_l/subtalar_angle_l/speed	/forceset/tau_hip_flexion_l	/forceset/tau_hip_adduction_l	/forceset/tau_hip_rotation_l	/forceset/tau_knee_flexion_l	/forceset/tau_ankle_angle_l	/forceset/tau_subtalar_angle_l	/forceset/tau_lumbar_extension	lambda_cid13_p0	lambda_cid13_p1	lambda_cid13_p2	lambda_cid13_p3	lambda_cid13_p4	lambda_cid13_p5	lambda_cid14_p0	/jointset/ground_pelvis/pelvis_tilt/accel	/jointset/ground_pelvis/pelvis_tx/accel	/jointset/ground_pelvis/pelvis_ty/accel	/jointset/hip_l/hip_flexion_l/accel	/jointset/hip_l/hip_adduction_l/accel	/jointset/hip_l/hip_rotation_l/accel	/jointset/back/lumbar_extension/accel	/jointset/patellofemoral_l/patellar_flexion_l/accel	/jointset/knee_l/knee_flexion_l/accel	/jointset/knee_l/knee_adduction_l/accel	/jointset/knee_l/knee_rotation_l/accel	/jointset/ankle_l/ankle_angle_l/accel	/jointset/subtalar_l/subtalar_angle_l/accel	gamma_cid13_p0	gamma_cid13_p1	gamma_cid13_p2	gamma_cid13_p3	gamma_cid13_p4	gamma_cid13_p5	gamma_cid14_p0
0	-0.1574035705437219	0.05754676382663328	0.8979071497614501	0.3774920279260975	-0.2604528016467721	-0.2503438747425989	-0.0126506700172305	0.03223623128436039	0.03223623128433527	-0.1745328184624696	0.1529381172061908	-0.04231376238535053	-0.01084104019215543	0	0	0	0	0	0	0	0	0	0	0	0	0	0.1432758047172523	-0.06789300941787813	-0.04567860718409211	-0.2921499138728319	0.3007774672330482	-0.04463667246314124	-0.09115076782026227	55.48412521241518	4.46720314505092	4.829189795466479	-9.53414418212423	-577.9967664229903	-65.835091252197	-38.41570045913291	-2.964557488460841	-2.181799844537561	-1.189842486411972	15.19810111714678	-0.3976530723042248	4.385783601053124	-7.134410654106757	15.78311276473393	15.78311276472476	3.181152484249487	0.9566437342620738	4.550241542718238	0.5901998529210825	-1.519747809004471e-08	5.427420119151898e-07	-1.749491557434708e-08	3.16805637563408e-08	1.808518335041348e-07	8.923438652441512e-08	5.237992522535078e-08
0.01	-0.1575442744872766	0.05743873824032508	0.8978491487949344	0.3782335582900735	-0.2604720214614217	-0.2501234643167393	-0.0130083640022341	0.03300925795676492	0.03300925795666462	-0.1743758687998706	0.1529795323718055	-0.04209162118250496	-0.01081212423032019	-0.02794745222395277	-0.02153390131401711	-0.01156801825933718	0.1475922566464791	-0.003787063296893779	0.04381960477080193	-0.07105564263269061	0.1538824765564683	0.1538824765564449	0.0312813171648057	0.008265096330831398	0.04418495575122818	0.005783978632090589	0.1353938934143428	-0.07681230778426791	-0.0439290944672881	-0.2818767184080741	0.2838262662719239	-0.02951623183399077	-0.08493869367750521	50.55153151707914	-0.998434222233506	5.429267355290271	-6.728071671453791	-579.2931445275314	-76.18073168798071	-38.43848011780294	-2.680847491630101	-2.128496547920473	-1.13541906876504	14.43270940325304	-0.3607911262201839	4.340703216173499	-7.018667912099863	15.0823759387243	15.08237593872656	3.085420444107441	0.7587896203441253	4.316135188300438	0.5725318444978491	-4.536934492065408e-08	6.468939777297443e-07	6.368536657383424e-08	8.60353425053193e-08	-6.030062509864373e-08	7.977928276949646e-08	5.948157635794218e-08
0.02	-0.1579586546335396	0.05711751138625829	0.897676440131212	0.3804295955134733	-0.2605274235425985	-0.2494727269829252	-0.01406211978240968	0.03529942156212938	0.03529942156212505	-0.1739093461433091	0.1531030679084549	-0.04143492790274891	-0.01072536148693497	-0.05473524053846553	-0.0426402535517187	-0.02294153944131799	0.2909013718872093	-0.007236453307267643	0.08606538158476419	-0.1392123590353069	0.3034273866177771	0.3034273866177719	0.06191459879004654	0.01642407417567672	0.08691041538145779	0.01156935630996978	0.1275119821112778	-0.0857316061508214	-0.04217958174962703	-0.2716035229437135	0.2668750653106337	-0.01439579120504939	-0.07872661953469119	45.75521805169141	-6.479815445643641	6.022587633289733	-4.209461375196891	-578.5709057036323	-86.30406412088185	-38.50564146229802	-2.732624706572328	-2.096290029274938	-1.150943070940703	14.34147283599713	-0.3301184150001522	4.071018009685153	-6.554625408091688	14.91559946570213	14.91559946570131	3.051545376336686	0.9354200370649119	4.258342318518009	0.590479662078767	-7.554121175126344e-08	7.510459435442987e-07	1.448656487220156e-07	1.403901212542978e-07	-3.014530837014223e-07	7.032417901457778e-08	6.658322749053357e-08
0.03	-0.1586359080688961	0.05658820379354384	0.8973904517545609	0.3840375246096401	-0.2606155247768568	-0.2484080541568071	-0.01578216949756165	0.03906398558912172	0.0390639855891044	-0.1731400710096436	0.1533079950395604	-0.04035708313204091	-0.01058039642955419	-0.0805498783385737	-0.06306296481103342	-0.0342645251246207	0.4299029704545374	-0.0103304112669824	0.1266178295211917	-0.204290609189808	0.4487676517604179	0.4487676517603459	0.09177305028211957	0.02449072518585481	0.1285168275736155	0.017440492757818	0.1219504549367832	-0.08011730605416134	-0.04141487451168688	-0.2677611135747763	0.2636354035771655	-0.01685311893637814	-0.07389773070001149	44.69166619590809	-5.319166860055006	5.94353415279326	-4.442622163043221	-578.0415632434658	-82.96312707499081	-38.61449846631031	-2.481047525518572	-1.991488350854229	-1.124295967355854	13.56227515954105	-0.291160872640888	4.009660487282913	-6.408378597734873	14.23556163991318	14.23556163990348	2.928030225052365	0.7317150135878049	4.090544208894513	0.5878218242106815	-9.783942172369332e-08	6.677197916293924e-07	2.259093530649336e-07	1.701261400425868e-07	-4.836400932197314e-07	7.810990201352443e-09	5.384245648987819e-08
0.04	-0.1595663407240353	0.0558594237529155	0.896990969591011	0.389012024049982	-0.2607329908679536	-0.2469453963910224	-0.01813779246998026	0.04426041658785362	0.04426041658784849	-0.1720772043232731	0.1535914741568744	-0.03886742353154678	-0.01037624177008047	-0.1053710844902067	-0.08253474313449428	-0.04564029682102785	0.5642154407194317	-0.0131094246740753	0.165662369524068	-0.2663270104884731	0.5898007809577974	0.5898007809576623	0.120632909350608	0.03213447141979061	0.1692733813389672	0.02340727672859164	0.1163889277627639	-0.0745030059573782	-0.04065016727373994	-0.2639187042054503	0.260395741843883	-0.01931044666754509	-0.06906884186513361	43.75034308080776	-4.167772581158829	5.852084769861536	-4.941230270861872	-575.7126008178151	-79.40836946909036	-38.76155197248895	-2.533938376876835	-1.906103442104622	-1.161500273561595	13.40364717551046	-0.2671295044756619	3.769436422974837	-5.94625563692427	14.05417227664997	14.05417227664993	2.851826891619951	0.8508390818164988	4.08837063315631	0.6096091666638399	-1.199752882557484e-07	5.805281115138786e-07	3.069502413706298e-07	1.993545555327172e-07	-6.646113202826908e-07	-5.579617974709573e-08	4.069256338338265e-08
0.05	-0.1607405723848514	0.05494054006139851	0.8964769795617638	0.3953074763831132	-0.2608764184430394	-0.2451013903436379	-0.02109777411194876	0.05084650599396669	0.05084650599396678	-0.1707306714270259	0.1539505978654022	-0.03697443913516454	-0.01011170307413748	-0.1292972246942457	-0.1010936275695312	-0.05720040966669913	0.6940962308193863	-0.01549534425400072	0.2028707921032437	-0.325152655741332	0.7266818820033836	0.7266818820033905	0.1485175156796167	0.03958884929320101	0.2091548672301544	0.02953580428037	0.1094934295688108	-0.0721595503104444	-0.03952876820725532	-0.2587401899771917	0.2535747650326813	-0.01706236711755699	-0.06335184547241922	41.82166113306644	-4.789877074177489	5.932372965672186	-4.644372007325917	-573.5600188758983	-79.26945603312092	-38.94247559411841	-2.295239195309685	-1.808485698418706	-1.159806270473655	12.66347041734272	-0.2123315978247917	3.656308923723084	-5.773219644328545	13.3947882470157	13.3947882470373	2.733485392356577	0.6775071744212852	3.912751649877643	0.6196503833780448	-1.293850082949826e-07	4.513886544754961e-07	3.466350414481897e-07	2.097728715228664e-07	-7.633540111382342e-07	-1.041408385041744e-07	2.636865447955088e-08
